<region> lovel=1 hivel=2 amp_velcurve_2=1 sample=../samples/toms/tm12rock/stx/snare_on/ord/tm12wrock_stxl_ord_001.wav
<region> lovel=3 hivel=4 amp_velcurve_4=1 sample=../samples/toms/tm12rock/stx/snare_on/ord/tm12wrock_stxl_ord_002.wav
<region> lovel=5 hivel=6 amp_velcurve_6=1 sample=../samples/toms/tm12rock/stx/snare_on/ord/tm12wrock_stxl_ord_003.wav
<region> lovel=7 hivel=8 amp_velcurve_8=1 sample=../samples/toms/tm12rock/stx/snare_on/ord/tm12wrock_stxl_ord_004.wav
<region> lovel=9 hivel=10 amp_velcurve_10=1 sample=../samples/toms/tm12rock/stx/snare_on/ord/tm12wrock_stxl_ord_005.wav
<region> lovel=11 hivel=12 amp_velcurve_12=1 sample=../samples/toms/tm12rock/stx/snare_on/ord/tm12wrock_stxl_ord_006.wav
<region> lovel=13 hivel=14 amp_velcurve_14=1 sample=../samples/toms/tm12rock/stx/snare_on/ord/tm12wrock_stxl_ord_007.wav
<region> lovel=15 hivel=16 amp_velcurve_16=1 sample=../samples/toms/tm12rock/stx/snare_on/ord/tm12wrock_stxl_ord_008.wav
<region> lovel=17 hivel=18 amp_velcurve_18=1 sample=../samples/toms/tm12rock/stx/snare_on/ord/tm12wrock_stxl_ord_009.wav
<region> lovel=19 hivel=20 amp_velcurve_20=1 sample=../samples/toms/tm12rock/stx/snare_on/ord/tm12wrock_stxl_ord_010.wav
<region> lovel=21 hivel=22 amp_velcurve_22=1 sample=../samples/toms/tm12rock/stx/snare_on/ord/tm12wrock_stxl_ord_011.wav
<region> lovel=23 hivel=24 amp_velcurve_24=1 sample=../samples/toms/tm12rock/stx/snare_on/ord/tm12wrock_stxl_ord_012.wav
<region> lovel=25 hivel=26 amp_velcurve_26=1 sample=../samples/toms/tm12rock/stx/snare_on/ord/tm12wrock_stxl_ord_013.wav
<region> lovel=27 hivel=28 amp_velcurve_28=1 sample=../samples/toms/tm12rock/stx/snare_on/ord/tm12wrock_stxl_ord_014.wav
<region> lovel=29 hivel=30 amp_velcurve_30=1 sample=../samples/toms/tm12rock/stx/snare_on/ord/tm12wrock_stxl_ord_015.wav
<region> lovel=31 hivel=32 amp_velcurve_32=1 sample=../samples/toms/tm12rock/stx/snare_on/ord/tm12wrock_stxl_ord_016.wav
<region> lovel=33 hivel=34 amp_velcurve_34=1 sample=../samples/toms/tm12rock/stx/snare_on/ord/tm12wrock_stxl_ord_017.wav
<region> lovel=35 hivel=36 amp_velcurve_36=1 sample=../samples/toms/tm12rock/stx/snare_on/ord/tm12wrock_stxl_ord_018.wav
<region> lovel=37 hivel=38 amp_velcurve_38=1 sample=../samples/toms/tm12rock/stx/snare_on/ord/tm12wrock_stxl_ord_019.wav
<region> lovel=39 hivel=40 amp_velcurve_40=1 sample=../samples/toms/tm12rock/stx/snare_on/ord/tm12wrock_stxl_ord_020.wav
<region> lovel=41 hivel=42 amp_velcurve_42=1 sample=../samples/toms/tm12rock/stx/snare_on/ord/tm12wrock_stxl_ord_021.wav
<region> lovel=43 hivel=44 amp_velcurve_44=1 sample=../samples/toms/tm12rock/stx/snare_on/ord/tm12wrock_stxl_ord_022.wav
<region> lovel=45 hivel=46 amp_velcurve_46=1 sample=../samples/toms/tm12rock/stx/snare_on/ord/tm12wrock_stxl_ord_023.wav
<region> lovel=47 hivel=48 amp_velcurve_48=1 sample=../samples/toms/tm12rock/stx/snare_on/ord/tm12wrock_stxl_ord_024.wav
<region> lovel=49 hivel=50 amp_velcurve_50=1 sample=../samples/toms/tm12rock/stx/snare_on/ord/tm12wrock_stxl_ord_025.wav
<region> lovel=51 hivel=52 amp_velcurve_52=1 sample=../samples/toms/tm12rock/stx/snare_on/ord/tm12wrock_stxl_ord_026.wav
<region> lovel=53 hivel=54 amp_velcurve_54=1 sample=../samples/toms/tm12rock/stx/snare_on/ord/tm12wrock_stxl_ord_027.wav
<region> lovel=55 hivel=56 amp_velcurve_56=1 sample=../samples/toms/tm12rock/stx/snare_on/ord/tm12wrock_stxl_ord_028.wav
<region> lovel=57 hivel=58 amp_velcurve_58=1 sample=../samples/toms/tm12rock/stx/snare_on/ord/tm12wrock_stxl_ord_029.wav
<region> lovel=59 hivel=60 amp_velcurve_60=1 sample=../samples/toms/tm12rock/stx/snare_on/ord/tm12wrock_stxl_ord_030.wav
<region> lovel=61 hivel=62 amp_velcurve_62=1 sample=../samples/toms/tm12rock/stx/snare_on/ord/tm12wrock_stxl_ord_031.wav
<region> lovel=63 hivel=64 amp_velcurve_64=1 sample=../samples/toms/tm12rock/stx/snare_on/ord/tm12wrock_stxl_ord_032.wav
<region> lovel=65 hivel=66 amp_velcurve_66=1 sample=../samples/toms/tm12rock/stx/snare_on/ord/tm12wrock_stxl_ord_033.wav
<region> lovel=67 hivel=68 amp_velcurve_68=1 sample=../samples/toms/tm12rock/stx/snare_on/ord/tm12wrock_stxl_ord_034.wav
<region> lovel=69 hivel=70 amp_velcurve_70=1 sample=../samples/toms/tm12rock/stx/snare_on/ord/tm12wrock_stxl_ord_035.wav
<region> lovel=71 hivel=72 amp_velcurve_72=1 sample=../samples/toms/tm12rock/stx/snare_on/ord/tm12wrock_stxl_ord_036.wav
<region> lovel=73 hivel=74 amp_velcurve_74=1 sample=../samples/toms/tm12rock/stx/snare_on/ord/tm12wrock_stxl_ord_037.wav
<region> lovel=75 hivel=76 amp_velcurve_76=1 sample=../samples/toms/tm12rock/stx/snare_on/ord/tm12wrock_stxl_ord_038.wav
<region> lovel=77 hivel=78 amp_velcurve_78=1 sample=../samples/toms/tm12rock/stx/snare_on/ord/tm12wrock_stxl_ord_039.wav
<region> lovel=79 hivel=80 amp_velcurve_80=1 sample=../samples/toms/tm12rock/stx/snare_on/ord/tm12wrock_stxl_ord_040.wav
<region> lovel=81 hivel=82 amp_velcurve_82=1 sample=../samples/toms/tm12rock/stx/snare_on/ord/tm12wrock_stxl_ord_041.wav
<region> lovel=83 hivel=84 amp_velcurve_84=1 sample=../samples/toms/tm12rock/stx/snare_on/ord/tm12wrock_stxl_ord_042.wav
<region> lovel=85 hivel=86 amp_velcurve_86=1 sample=../samples/toms/tm12rock/stx/snare_on/ord/tm12wrock_stxl_ord_043.wav
<region> lovel=87 hivel=88 amp_velcurve_88=1 sample=../samples/toms/tm12rock/stx/snare_on/ord/tm12wrock_stxl_ord_044.wav
<region> lovel=89 hivel=90 amp_velcurve_90=1 sample=../samples/toms/tm12rock/stx/snare_on/ord/tm12wrock_stxl_ord_045.wav
<region> lovel=91 hivel=92 amp_velcurve_92=1 sample=../samples/toms/tm12rock/stx/snare_on/ord/tm12wrock_stxl_ord_046.wav
<region> lovel=93 hivel=94 amp_velcurve_94=1 sample=../samples/toms/tm12rock/stx/snare_on/ord/tm12wrock_stxl_ord_047.wav
<region> lovel=95 hivel=96 amp_velcurve_96=1 sample=../samples/toms/tm12rock/stx/snare_on/ord/tm12wrock_stxl_ord_048.wav
<region> lovel=97 hivel=98 amp_velcurve_98=1 sample=../samples/toms/tm12rock/stx/snare_on/ord/tm12wrock_stxl_ord_049.wav
<region> lovel=99 hivel=100 amp_velcurve_100=1 sample=../samples/toms/tm12rock/stx/snare_on/ord/tm12wrock_stxl_ord_050.wav
<region> lovel=101 hivel=102 amp_velcurve_102=1 sample=../samples/toms/tm12rock/stx/snare_on/ord/tm12wrock_stxl_ord_051.wav
<region> lovel=103 hivel=104 amp_velcurve_104=1 sample=../samples/toms/tm12rock/stx/snare_on/ord/tm12wrock_stxl_ord_052.wav
<region> lovel=105 hivel=106 amp_velcurve_106=1 sample=../samples/toms/tm12rock/stx/snare_on/ord/tm12wrock_stxl_ord_053.wav
<region> lovel=107 hivel=109 amp_velcurve_109=1 sample=../samples/toms/tm12rock/stx/snare_on/ord/tm12wrock_stxl_ord_054.wav
<region> lovel=110 hivel=112 amp_velcurve_112=1 sample=../samples/toms/tm12rock/stx/snare_on/ord/tm12wrock_stxl_ord_055.wav
<region> lovel=113 hivel=115 amp_velcurve_115=1 sample=../samples/toms/tm12rock/stx/snare_on/ord/tm12wrock_stxl_ord_056.wav
<region> lovel=116 hivel=118 amp_velcurve_118=1 sample=../samples/toms/tm12rock/stx/snare_on/ord/tm12wrock_stxl_ord_057.wav
<region> lovel=119 hivel=121 amp_velcurve_121=1 sample=../samples/toms/tm12rock/stx/snare_on/ord/tm12wrock_stxl_ord_058.wav
<region> lovel=122 hivel=124 amp_velcurve_124=1 sample=../samples/toms/tm12rock/stx/snare_on/ord/tm12wrock_stxl_ord_059.wav
<region> lovel=125 hivel=127 amp_velcurve_127=1 sample=../samples/toms/tm12rock/stx/snare_on/ord/tm12wrock_stxl_ord_060.wav
